<?xml version="1.0" encoding="utf-8"?>
<!-- Generator: Adobe Illustrator 17.0.2, SVG Export Plug-In . SVG Version: 6.00 Build 0)  -->
<!DOCTYPE svg PUBLIC "-//W3C//DTD SVG 1.1//EN" "http://www.w3.org/Graphics/SVG/1.1/DTD/svg11.dtd">
<svg version="1.1" id="Layer_3_copy_2" xmlns="http://www.w3.org/2000/svg" xmlns:xlink="http://www.w3.org/1999/xlink" x="0px"
	 y="0px" width="598.47px" height="603.076px" viewBox="0 0 598.47 603.076" enable-background="new 0 0 598.47 603.076"
	 xml:space="preserve">
<g>
	<g>
		<defs>
			<path id="SVGID_1_" d="M214.311,237.976c0.639,1.574,1.307,3.136,2.005,4.685c-5.385-0.552-10.806-0.739-16.219-0.561
				c3.16-5.134,6.696-10.031,10.574-14.646C211.736,231.011,212.957,234.52,214.311,237.976
				C214.662,238.854,213.97,237.107,214.311,237.976z M224.432,266.898c1.305-0.133,2.613-0.231,3.923-0.295
				c-2.298-3.506-4.351-7.167-6.144-10.959c-2.428,3.994-4.541,8.177-6.315,12.5C218.721,267.594,221.57,267.192,224.432,266.898
				C225.153,266.823,223.711,266.972,224.432,266.898z M220.84,289.982c-3.262-2.618-6.343-5.461-9.215-8.501
				c-1.086,4.543-1.801,9.176-2.136,13.835C213.147,293.284,216.94,291.502,220.84,289.982z M183.628,293.283
				c-0.471,6.01-0.452,12.061,0.057,18.068c4.255-3.326,8.733-6.361,13.4-9.082C192.4,299.586,187.901,296.581,183.628,293.283z
				 M197.703,265.984c-2.014-2.521-3.937-5.111-5.769-7.77c-2.293,5.581-4.147,11.337-5.54,17.207
				c5.078-1.849,10.289-3.344,15.575-4.469C200.508,269.329,199.095,267.667,197.703,265.984
				C197.397,265.597,198.022,266.37,197.703,265.984z M210,313.72c0.488,3.163,1.019,6.294,1.775,9.407
				c2.856-3.062,5.924-5.929,9.174-8.569c-3.919-1.491-7.737-3.245-11.423-5.245C209.676,310.783,209.834,312.252,210,313.72
				C210.125,314.531,209.898,312.906,210,313.72z M188.034,334.713c1.258,3.935,2.564,7.82,4.153,11.637
				c3.026-4.478,6.362-8.749,9.974-12.769c-5.296-1.114-10.517-2.582-15.618-4.392C187.031,331.033,187.528,332.874,188.034,334.713
				C188.356,335.722,187.74,333.695,188.034,334.713z M235.36,277.087c-0.534-0.748-0.885-1.261-0.885-1.261
				c-1.379,3.346-2.485,6.805-3.303,10.331c1.849-0.676,3.726-1.283,5.627-1.798v-5.344
				C236.299,278.388,235.819,277.745,235.36,277.087C234.826,276.339,235.627,277.461,235.36,277.087z M233.223,207.107
				c-3.405,2.327-6.688,4.827-9.804,7.532c4.556,1.303,9.01,2.9,13.38,4.733v-13.956h-1.088
				C234.863,205.951,234.034,206.515,233.223,207.107C232.786,207.406,234.099,206.509,233.223,207.107z M235.153,239.155
				c-1.636,1.668-3.23,3.367-4.75,5.141c2.148,0.256,4.28,0.598,6.396,1.026v-7.806
				C236.241,238.053,235.692,238.599,235.153,239.155C234.54,239.78,235.461,238.844,235.153,239.155z M231.34,360.121
				c-0.343,0.044-0.539,0.069-0.539,0.069c1.905,2.193,3.925,4.262,5.998,6.296v-7.294
				C234.987,359.549,233.168,359.859,231.34,360.121C230.997,360.165,231.684,360.075,231.34,360.121z M201.912,364.835
				c2.875,4.217,5.831,8.324,9.165,12.199c1.488-5.194,3.333-10.28,5.521-15.222c-5.368,0.579-10.777,0.786-16.173,0.619
				C200.916,363.235,201.412,364.036,201.912,364.835C202.39,365.536,201.453,364.122,201.912,364.835z M235.978,319.909
				c-1.576-0.439-3.136-0.93-4.675-1.486c0.844,3.521,1.979,6.972,3.388,10.307c0.681-1.004,1.384-1.992,2.108-2.966v-5.631
				C236.528,320.061,236.253,319.986,235.978,319.909C235.39,319.745,236.253,319.986,235.978,319.909z M229.424,298.567
				c-0.14,3.054-0.116,6.102,0.142,9.15c2.304-1.801,4.719-3.473,7.233-4.969v-0.961c-2.526-1.491-4.959-3.129-7.288-4.914
				C229.511,296.873,229.476,297.551,229.424,298.567C229.401,299.075,229.476,297.551,229.424,298.567z M79.459,334.713v4.559
				c2.263-1.882,3.76-3.077,3.76-3.077S81.756,335.637,79.459,334.713z M79.459,264.884v4.595c2.312-0.929,3.785-1.49,3.785-1.49
				S81.736,266.782,79.459,264.884z M217.949,340.477c1.37,2.887,2.887,5.701,4.582,8.412c1.765-3.796,3.791-7.466,6.061-10.984
				c-4.178-0.204-8.343-0.698-12.453-1.477C216.688,337.807,217.314,339.136,217.949,340.477
				C218.125,340.848,217.597,339.734,217.949,340.477z M104.284,401.01c-8.299-0.443-16.61-1.209-24.825-2.488v14.252h17.664
				C100.836,406.349,104.284,401.01,104.284,401.01z M129.588,251.951c2.742-0.695,5.496-1.34,8.262-1.935
				c-6.055-6.677-11.653-13.771-16.74-21.213c-3.783,9.302-6.878,18.876-9.257,28.633
				C117.693,255.368,123.605,253.539,129.588,251.951C131.128,251.56,128.05,252.341,129.588,251.951z M236.799,385.147
				c-4.204,1.796-8.523,3.337-12.906,4.634c4.086,3.451,8.41,6.563,12.906,9.455V385.147z M158.715,409.19
				c1.027-2.628,2.12-5.227,3.281-7.799c-8.966,0.947-17.994,1.295-27.008,1.04c2.188,3.513,4.469,6.979,6.88,10.342h15.491
				C157.815,411.543,158.273,410.329,158.715,409.19C159.276,407.74,158.273,410.329,158.715,409.19z M202.582,411.922
				c0.827-5.809,2.003-11.549,3.527-17.22c-6.728,1.817-13.583,3.168-20.496,4.039c4.221,4.975,8.796,9.737,13.712,14.032h3.135
				C202.498,412.505,202.538,412.224,202.582,411.922C202.874,409.951,202.538,412.224,202.582,411.922z M114.444,356.215
				c2.019,6.58,4.203,13.06,6.875,19.405c5.041-7.452,10.585-14.557,16.588-21.263c-8.801-1.853-17.473-4.31-25.936-7.35
				C112.656,350.114,113.481,353.183,114.444,356.215C114.962,357.903,113.948,354.52,114.444,356.215z M106.896,291.864
				c-0.394,8.488-0.387,16.939,0.309,25.412c7.102-5.533,14.597-10.573,22.399-15.064c-7.815-4.491-15.311-9.519-22.434-15.05
				C107.17,287.162,107.06,289.043,106.896,291.864C106.83,293.275,107.06,289.043,106.896,291.864z M185.234,205.691
				c6.921,0.854,13.777,2.184,20.517,3.981c-0.39-1.411-0.746-2.831-1.08-4.257h-19.196
				C185.323,205.588,185.234,205.691,185.234,205.691z M175.252,243.331c2.182-0.201,4.368-0.363,6.556-0.485
				c-3.828-5.84-7.257-11.945-10.253-18.253c-4.017,6.663-7.541,13.617-10.539,20.797
				C165.736,244.511,170.481,243.825,175.252,243.331C176.478,243.218,174.028,243.444,175.252,243.331z M153.848,267.575
				c-1.803,7.576-3.009,15.288-3.606,23.051c6.103-3.378,12.446-6.331,18.96-8.827C163.762,277.419,158.632,272.667,153.848,267.575
				z M151.086,321.3c0.752,5.279,1.641,10.502,2.921,15.68c4.757-5.095,9.857-9.864,15.26-14.272
				c-6.512-2.479-12.853-5.406-18.963-8.753C150.454,316.415,150.715,318.864,151.086,321.3
				C151.279,322.654,150.911,319.943,151.086,321.3z M164.246,365.891c2.395,4.764,4.84,9.455,7.633,14.003
				c2.958-6.317,6.353-12.433,10.151-18.284c-6.976-0.357-13.927-1.18-20.795-2.461
				C162.228,361.401,163.232,363.648,164.246,365.891C164.86,367.113,163.668,364.652,164.246,365.891z M185.933,312.558
				c-1.348-0.709-2.249-1.206-2.249-1.206c0.495,6.008,1.45,11.975,2.857,17.838c3.703-3.948,7.669-7.648,11.863-11.067
				C194.146,316.503,189.989,314.637,185.933,312.558C184.585,311.849,187.311,313.264,185.933,312.558z M203.348,337.11
				c1.495,3.803,3.058,7.549,4.929,11.184c2.34-4.135,4.964-8.109,7.849-11.886c-4.715-0.614-9.384-1.547-13.972-2.792
				C202.544,334.783,202.942,335.948,203.348,337.11C203.504,337.508,203.198,336.71,203.348,337.11z M204.934,283.702
				c2.21-0.827,4.43-1.591,6.689-2.262c-3.463-3.262-6.696-6.758-9.677-10.463c-1.64,5.05-2.864,10.234-3.655,15.484
				C200.469,285.455,202.686,284.541,204.934,283.702C206.611,283.075,204.095,284.015,204.934,283.702z M209.438,295.916
				c-0.473,4.394-0.258,9.008,0.086,13.396c3.31-2.575,6.791-4.928,10.414-7.039c-3.637-2.075-7.132-4.402-10.449-6.957
				C209.489,295.316,209.471,295.535,209.438,295.916C209.397,296.298,209.471,295.535,209.438,295.916z M212.945,379.155
				c3.465,3.741,7.057,7.32,10.948,10.626c0.655-5.374,1.682-10.693,3.073-15.922c-5.213,1.426-10.529,2.487-15.89,3.174
				C211.676,377.761,212.299,378.468,212.945,379.155C213.522,379.777,212.368,378.533,212.945,379.155z M233.995,254.311
				c-1.39-3.259-2.588-6.62-3.592-10.014c-3.004,3.576-5.743,7.371-8.191,11.348c4.19-0.14,8.39,0.008,12.559,0.442
				C234.771,256.087,234.454,255.386,233.995,254.311C233.766,253.773,234.454,255.386,233.995,254.311z M184.253,365.87
				c2.67,4.548,5.416,9.01,8.532,13.269c2.152-5.742,4.7-11.337,7.618-16.731c-6.135,0.165-12.276-0.087-18.375-0.752
				C182.76,363.066,183.502,364.47,184.253,365.87C184.532,366.346,183.981,365.39,184.253,365.87z M163.915,264.344
				c3.325-0.959,6.68-1.801,10.068-2.504c-4.685-5.183-9.019-10.682-12.966-16.451c-2.93,7.208-5.327,14.626-7.169,22.185
				C157.166,266.385,160.525,265.319,163.915,264.344C165.166,263.984,161.413,265.064,163.915,264.344z M154.909,340.513
				c1.787,6.328,3.815,12.55,6.326,18.635c3.928-5.778,8.24-11.292,12.901-16.494c-6.828-1.425-13.561-3.324-20.128-5.674
				C154.273,338.167,154.573,339.344,154.909,340.513C155.206,341.566,154.607,339.462,154.909,340.513z M181.069,294.483
				c0.842-0.432,1.691-0.849,2.547-1.253c-5.07-3.463-9.896-7.271-14.441-11.396c-1.077,6.768-1.595,13.624-1.549,20.476
				C171.954,299.441,176.446,296.85,181.069,294.483C181.816,294.097,179.564,295.254,181.069,294.483z M192.008,258.025
				c-0.048,0.123-0.074,0.189-0.074,0.189c5.314-1.02,10.699-1.675,16.102-1.96c-2.961-4.532-5.614-9.263-7.939-14.154
				C197.06,247.145,194.109,252.505,192.008,258.025C191.96,258.149,192.055,257.901,192.008,258.025z M203.372,226.275
				c2.458,0.338,4.909,0.707,7.351,1.147c-2.077-5.778-3.751-11.705-5.005-17.715c-4.835,4.858-9.285,10.092-13.302,15.647
				C196.081,225.531,199.733,225.838,203.372,226.275C203.936,226.352,202.815,226.211,203.372,226.275z M229.231,268.132
				c-0.543-0.898-0.896-1.512-0.896-1.512c-1.865,3.667-3.427,7.487-4.665,11.409c3.545-0.993,7.161-1.74,10.809-2.234
				C232.573,273.345,230.824,270.791,229.231,268.132C228.688,267.233,229.777,269.032,229.231,268.132z M236.799,329.092
				c-0.706-0.102-1.408-0.223-2.108-0.362c0.642,1.542,1.331,3.074,2.108,4.554V329.092z M182.05,409.936
				c1.05-3.78,2.227-7.52,3.531-11.219c-7.789,1.443-15.669,2.356-23.579,2.734c2.822,3.903,5.812,7.706,8.991,11.323h10.282
				C181.525,411.837,181.783,410.887,182.05,409.936C182.859,407.061,181.783,410.887,182.05,409.936z M123.179,379.943
				c3.551,7.709,7.385,15.234,11.809,22.488c3.847-8.156,8.237-16.053,13.134-23.622c-8.991-0.445-17.958-1.513-26.803-3.19
				C121.896,377.079,122.516,378.52,123.179,379.943C123.769,381.226,122.582,378.663,123.179,379.943z M150.279,313.891
				c-7.16-3.396-14.078-7.281-20.701-11.628c-0.013,8.845,0.704,17.69,2.139,26.418
				C137.552,323.331,143.761,318.385,150.279,313.891z M101.801,208.006c-4.048,8.76-7.722,17.628-10.703,26.819
				c9.876-2.727,19.925-4.766,30.078-6.101c-5.725-7.418-11.033-15.207-15.742-23.309h-2.416
				C102.662,206.137,102.261,207.009,101.801,208.006C101.127,209.464,102.261,207.009,101.801,208.006z M221.456,411.184
				c0.16-1.935,0.294-3.205,0.294-3.205c-3.94,1.782-7.96,3.359-12.039,4.795h11.621
				C221.374,412.208,221.416,411.674,221.456,411.184C221.616,409.249,221.416,411.674,221.456,411.184z M79.459,302.751
				c0.702-0.408,1.113-0.643,1.113-0.643s-0.411-0.236-1.113-0.646V302.751z M159.286,206.347
				c-4.155,6.215-8.036,12.56-11.426,19.234c7.887-0.896,15.824-1.244,23.755-1.041c-3.379-6.174-6.432-12.571-8.997-19.125h-2.708
				C159.713,205.708,159.508,206.015,159.286,206.347C158.595,207.381,159.508,206.015,159.286,206.347z M236.799,291.486
				c-1.973-1.668-3.848-3.456-5.627-5.329c-0.827,3.523-1.382,7.107-1.661,10.716c2.365-1.307,4.794-2.479,7.288-3.514V291.486z
				 M87.67,338.212c-2.68-1.139-4.474-1.947-4.474-1.947c1.761,11.28,4.451,22.413,8.036,33.252
				c6.365-7.993,13.287-15.547,20.694-22.586C103.661,344.514,95.576,341.608,87.67,338.212
				C84.99,337.073,90.361,339.351,87.67,338.212z M229.405,358.503c0.838,1.013,1.396,1.688,1.396,1.688
				c1.15-4.033,2.577-7.981,4.273-11.815c-4.161,0.462-8.358,0.634-12.544,0.513C224.6,352.258,226.923,355.428,229.405,358.503
				C230.243,359.516,228.992,357.992,229.405,358.503z M236.622,221.677c-3.521,2.783-6.909,5.69-10.077,8.876
				c3.461,0.694,6.887,1.574,10.254,2.632v-11.648C236.737,221.587,236.687,221.626,236.622,221.677
				C236.036,222.14,236.687,221.626,236.622,221.677z M221.266,316.483c0.618,3.411,1.495,6.783,2.588,10.073
				c2.289-2.883,4.777-5.608,7.44-8.15c-3.535-1.039-6.996-2.316-10.357-3.822C220.938,314.584,221.069,315.344,221.266,316.483
				C221.318,316.767,221.069,315.344,221.266,316.483z M123.82,278.992c2.603-1.112,5.226-2.175,7.869-3.187
				c-7.015-5.667-13.645-11.807-19.836-18.369c-2.287,9.779-3.853,19.718-4.683,29.726
				C112.602,284.207,118.163,281.49,123.82,278.992C125.266,278.367,122.398,279.62,123.82,278.992z M189.169,258.605
				c1.698-0.255,2.818-0.399,2.818-0.399c-3.755-4.87-7.18-9.994-10.247-15.327c-3.067,6.124-5.68,12.469-7.816,18.975
				C178.936,260.484,184.032,259.387,189.169,258.605C190.867,258.35,188.323,258.734,189.169,258.605z M188.188,277.273
				c-1.08-1.096-1.794-1.852-1.794-1.852c-1.41,5.865-2.336,11.846-2.767,17.862c4.718-2.624,9.62-4.921,14.655-6.869
				C194.732,283.57,191.367,280.523,188.188,277.273C187.108,276.177,189.274,278.371,188.188,277.273z M205.547,307.282
				c-2.885-1.535-5.712-3.177-8.449-4.962c0.021,5.306,0.45,10.608,1.281,15.849c3.521-3.21,7.255-6.184,11.171-8.897
				C208.199,308.643,206.865,307.98,205.547,307.282C204.82,306.895,206.272,307.669,205.547,307.282z M189.911,219.279
				c-1.751-4.461-3.334-8.987-4.677-13.588c-5.045,5.931-9.621,12.254-13.678,18.902c6.983-0.244,13.971-0.004,20.917,0.719
				C191.565,223.324,190.711,221.313,189.911,219.279C189.469,218.154,190.351,220.403,189.911,219.279z M169.426,323.643
				c0.821,6.428,2.701,12.935,4.686,19.077c3.844-4.8,8.007-9.342,12.455-13.588c-5.893-1.72-11.672-3.849-17.273-6.362
				C169.294,322.77,169.342,323.088,169.426,323.643C169.497,324.201,169.342,323.088,169.426,323.643z M220.221,229.016
				c2.133,0.465,4.259,0.958,6.372,1.512c-1.425-5.213-2.487-10.529-3.174-15.89c-4.576,3.93-8.841,8.218-12.748,12.816
				C213.874,227.863,217.058,228.383,220.221,229.016C220.711,229.123,219.736,228.922,220.221,229.016z M174.773,384.47
				c3.427,4.915,6.934,9.724,10.84,14.272c1.928-6.695,4.318-13.257,7.145-19.626c-6.934,0.73-13.911,0.991-20.879,0.778
				C172.834,381.425,173.799,382.951,174.773,384.47C175.132,384.984,174.423,383.95,174.773,384.47z M235.895,254.545
				c-0.394,0.513-0.789,1.012-1.16,1.539c0.689,0.027,1.376,0.074,2.064,0.125v-2.839
				C236.474,253.792,236.164,254.195,235.895,254.545C235.543,255.004,236.164,254.195,235.895,254.545z M209.159,254.063
				c-0.399,0.734-0.802,1.449-1.17,2.195c4.733-0.53,9.504-0.735,14.264-0.613c-2.287-4.18-4.29-8.514-5.994-12.966
				C213.647,246.321,211.304,250.13,209.159,254.063C208.803,254.718,209.516,253.408,209.159,254.063z M230.933,308.44
				c-0.82-0.424-1.367-0.723-1.367-0.723c0.287,3.608,0.868,7.193,1.736,10.706c1.735-1.867,3.575-3.623,5.496-5.297v-1.978
				C234.799,310.341,232.844,309.439,230.933,308.44C230.114,308.015,231.759,308.864,230.933,308.44z M236.799,270.723
				c-0.869,1.653-1.629,3.371-2.324,5.103c0.773-0.151,1.547-0.292,2.324-0.421V270.723z M211.774,323.127
				c1.091,4.542,2.553,8.996,4.365,13.301c2.337-3.468,4.914-6.775,7.704-9.891C219.748,325.674,215.715,324.535,211.774,323.127z
				 M223.146,278.104c0.333-0.071,0.524-0.112,0.524-0.112c-2.814-3.1-5.412-6.391-7.773-9.847
				c-1.787,4.319-3.217,8.784-4.272,13.336C215.375,280.109,219.236,278.924,223.146,278.104
				C223.479,278.033,222.808,278.175,223.146,278.104z M228.127,295.872c-2.552-1.778-4.974-3.769-7.283-5.849
				c-0.624,4.064-0.935,8.173-0.931,12.285c3.082-2.032,6.298-3.858,9.622-5.461C229.535,296.845,228.971,296.466,228.127,295.872
				C227.699,295.574,228.971,296.466,228.127,295.872z M79.459,237.506c3.882-1.008,7.785-1.933,11.706-2.776
				c-4.093-4.491-7.969-9.157-11.706-13.947V237.506z M193.849,350.201c2.03,4.175,4.133,8.279,6.575,12.23
				c2.284-4.891,4.904-9.625,7.835-14.158c-5.395-0.277-10.766-0.92-16.073-1.923C192.732,347.637,193.287,348.921,193.849,350.201
				C194.062,350.638,193.644,349.761,193.849,350.201z M80.094,382.653c3.56-4.533,7.221-8.949,11.08-13.219
				c0,0-5.276-1.121-11.715-2.782v16.818C79.672,383.197,79.881,382.924,80.094,382.653
				C82.796,379.213,79.881,382.924,80.094,382.653z M132.345,206.005c-4.155,7.408-7.988,14.938-11.235,22.798
				c8.854-1.714,17.812-2.812,26.814-3.286c-4.216-6.455-8.134-13.174-11.516-20.102h-3.732
				C132.567,205.608,132.461,205.799,132.345,206.005C131.654,207.237,132.461,205.799,132.345,206.005z M236.799,338.386
				c-2.737-0.025-5.471-0.168-8.193-0.457c1.882,3.658,4.05,7.167,6.481,10.486c0,0,0.768-2.037,1.711-4.217L236.799,338.386
				L236.799,338.386z M132.794,406.507c1.308-2.531,2.205-4.177,2.205-4.177c-10.223,0.293-20.474-0.12-30.641-1.235
				c2.023,3.948,4.137,7.86,6.395,11.68h18.914C130.78,410.446,131.901,408.247,132.794,406.507
				C134.102,403.976,131.901,408.247,132.794,406.507z M166.836,302.698c0.492-0.284,0.773-0.446,0.773-0.446
				c-6.05-3.472-11.853-7.357-17.367-11.626c-0.619,7.761-0.599,15.572,0.062,23.329
				C155.546,309.858,161.06,306.002,166.836,302.698C167.328,302.415,166.337,302.983,166.836,302.698z M226.991,373.907
				c0.944-4.67,2.211-9.268,3.791-13.761c-4.672,0.893-9.411,1.459-14.162,1.693C219.755,366.126,223.225,370.163,226.991,373.907z
				 M208.449,396.971c4.256,3.93,8.643,7.665,13.342,11.065c0.266-6.144,0.957-12.261,2.069-18.306
				c-5.778,2.077-11.705,3.751-17.715,5.004C206.888,395.504,207.656,396.25,208.449,396.971
				C209.157,397.624,207.741,396.317,208.449,396.971z M107.848,324.239c1.073,7.677,2.28,15.23,4.123,22.768
				c6.135-6.576,12.728-12.73,19.712-18.398c-8.411-3.211-16.59-6.998-24.478-11.334
				C107.416,319.597,107.631,321.918,107.848,324.239C107.96,325.041,107.773,323.433,107.848,324.239z M135.081,274.324
				c6.162-2.593,12.421-4.883,18.832-6.77c-5.766-5.455-11.163-11.299-16.145-17.482c-2.679,8.424-4.737,17.039-6.152,25.763
				C132.76,275.306,133.915,274.803,135.081,274.324C137.177,273.442,134.037,274.765,135.081,274.324z M139.288,358.353
				c2.586,7.009,5.434,13.876,8.818,20.546c3.937-6.893,8.332-13.52,13.149-19.826c-7.859-1.009-15.655-2.562-23.301-4.641
				C138.36,355.751,138.804,357.058,139.288,358.353C139.719,359.519,138.853,357.188,139.288,358.353z M99.409,281.514
				c-5.598-4.258-11.017-8.737-16.256-13.438c-1.723,11.279-2.615,22.675-2.667,34.084c8.564-5.616,17.514-10.645,26.764-15.038
				C104.602,285.3,101.988,283.431,99.409,281.514C97.962,280.438,100.858,282.59,99.409,281.514z M215.92,268.125
				c-2.914-3.767-5.564-7.732-7.931-11.867c-2.396,4.74-4.418,9.664-6.044,14.719C206.528,269.703,211.204,268.749,215.92,268.125z
				 M197.318,242.037c1.714,0.008,2.842,0.039,2.842,0.039c-2.958-5.388-5.547-10.98-7.742-16.723
				c-3.983,5.571-7.553,11.431-10.677,17.526C186.898,242.306,192.123,242.013,197.318,242.037
				C199.032,242.046,196.461,242.033,197.318,242.037z M176.292,348.844c1.773,4.345,3.597,8.63,5.736,12.812
				c3.03-5.34,6.43-10.474,10.164-15.347c-6.097-0.792-12.14-1.992-18.079-3.589C174.829,344.765,175.556,346.806,176.292,348.844
				C176.746,349.959,175.869,347.717,176.292,348.844z M199.981,287.957c-1.017-0.885-1.691-1.497-1.691-1.497
				c-0.827,5.241-1.226,10.553-1.192,15.859c3.963-2.626,8.101-4.981,12.383-7.049C206.179,293.02,202.997,290.58,199.981,287.957
				C198.964,287.073,200.49,288.399,199.981,287.957z M205.06,320.88c-3.318-1.226-6.681-2.711-6.681-2.711
				c0.861,5.237,2.123,10.404,3.773,15.447c2.963-3.721,6.184-7.241,9.63-10.519C209.518,322.431,207.277,321.693,205.06,320.88
				C201.742,319.654,206.7,321.505,205.06,320.88z M177.77,278.291c2.85-1.067,5.728-2.046,8.65-2.9
				c-4.472-4.217-8.647-8.74-12.496-13.537c-2.102,6.524-3.691,13.209-4.748,19.98C171.99,280.533,174.855,279.352,177.77,278.291
				C178.847,277.888,175.617,279.096,177.77,278.291z M133.255,336.93c1.319,5.913,2.791,11.75,4.699,17.501
				c4.936-6.193,10.289-12.047,16.018-17.518c-7.595-2.231-15.037-4.983-22.255-8.232
				C132.105,331.454,132.617,334.204,133.255,336.93C133.593,338.447,132.936,335.409,133.255,336.93z M131.053,279.942
				c-0.929,7.421-1.504,14.837-1.476,22.321c6.613-4.367,13.536-8.275,20.691-11.68c-6.55-4.478-12.781-9.406-18.652-14.748
				C131.617,275.835,131.391,277.478,131.053,279.942C130.898,281.176,131.391,277.478,131.053,279.942z M233.987,372.164
				c-2.315,0.653-4.645,1.241-6.996,1.743c3.082,3.047,6.361,5.897,9.808,8.523v-11.099
				C235.869,371.635,234.932,371.912,233.987,372.164C232.279,372.646,234.842,371.924,233.987,372.164z M153.709,246.477
				c2.454-0.422,4.915-0.798,7.383-1.13c-4.854-6.275-9.279-12.885-13.232-19.765c-3.959,7.903-7.333,16.092-10.091,24.49
				C143.036,248.658,148.349,247.459,153.709,246.477C155.087,246.24,152.333,246.713,153.709,246.477z M236.799,401.219
				c-4.852,2.581-9.875,4.853-15.008,6.817c2.305,1.646,4.646,3.268,7.067,4.739h7.94L236.799,401.219L236.799,401.219z
				 M194.683,381.73c3.631,4.521,7.343,8.911,11.462,13.003c1.225-6.015,2.863-11.939,4.903-17.73
				c-6.028,1.132-12.137,1.846-18.263,2.136C193.413,380.006,194.045,380.87,194.683,381.73
				C195.286,382.481,194.099,380.963,194.683,381.73z M152.115,386.268c3.134,5.184,6.321,10.28,9.887,15.183
				c2.79-7.417,6.093-14.646,9.875-21.609c-7.933,0.215-15.879-0.1-23.772-0.943C149.431,381.361,150.767,383.817,152.115,386.268
				C152.919,387.597,151.35,384.916,152.115,386.268z M183.666,311.295c-5.544-2.623-10.907-5.627-16.039-8.984
				c-0.001,6.849,0.557,13.701,1.667,20.46C173.819,318.626,178.621,314.792,183.666,311.295z M185.266,205.648
				c0,0-0.03-0.084-0.084-0.233h-1.241C184.773,205.558,185.266,205.648,185.266,205.648z M209.125,206.369
				c-1.137,1.111-2.272,2.224-3.406,3.338c6.015,1.225,11.939,2.863,17.73,4.903c-0.579-3.048-1.02-6.111-1.387-9.195h-11.867
				C209.828,205.742,209.465,206.066,209.125,206.369C208.73,206.755,209.465,206.066,209.125,206.369z M100.714,371.902
				c-3.175-0.739-6.336-1.534-9.482-2.385c3.508,10.857,7.904,21.432,13.126,31.578c5.049-8.888,10.697-17.427,16.902-25.554
				C114.365,374.622,107.504,373.413,100.714,371.902C98.97,371.497,102.488,372.297,100.714,371.902z M234.735,256.084
				c-2.405,3.338-4.547,6.863-6.401,10.536c2.81-0.318,5.637-0.492,8.465-0.525v-5.094
				C235.699,258.582,234.735,256.084,234.735,256.084z M105.052,250.613c-4.861-5.072-9.528-10.333-13.955-15.788
				c-3.459,10.871-6.116,21.99-7.945,33.252c9.343-4.214,18.965-7.794,28.786-10.711C109.6,255.159,107.305,252.908,105.052,250.613
				C103.83,249.338,106.301,251.895,105.052,250.613z M80.749,312.992c0.548,7.806,1.216,15.539,2.447,23.273
				c7.553-6.896,15.595-13.27,24.034-19.049c-9.25-4.393-18.185-9.424-26.744-15.056C80.542,305.772,80.63,309.382,80.749,312.992
				C80.89,314.993,80.625,310.989,80.749,312.992z M224.783,279.378c-0.672-0.8-1.114-1.349-1.114-1.349
				c-1.265,3.912-2.211,7.928-2.825,11.994c3.35-1.532,6.801-2.835,10.327-3.901C228.915,284,226.775,281.749,224.783,279.378
				C224.111,278.578,225.119,279.778,224.783,279.378z M211.771,354.608c1.564,2.458,3.128,4.883,4.85,7.232
				c1.663-4.455,3.631-8.792,5.891-12.978c-4.75,0.139-9.511-0.051-14.235-0.568C209.372,350.44,210.57,352.52,211.771,354.608
				C211.904,354.817,211.647,354.393,211.771,354.608z M229.726,242.204c-1.288-3.814-2.344-7.713-3.181-11.65
				c-3.72,3.783-7.159,7.837-10.285,12.125c4.762,0.216,9.506,0.753,14.194,1.607C230.453,244.285,230.154,243.463,229.726,242.204
				C229.514,241.575,230.154,243.463,229.726,242.204z M236.259,349.946c0.167,0.214,0.349,0.447,0.54,0.691v-2.332
				c-0.57,0.049-1.14,0.087-1.711,0.112C235.463,348.939,235.861,349.435,236.259,349.946
				C236.426,350.16,235.904,349.49,236.259,349.946z M224.46,328.386c1.239,3.253,2.549,6.445,4.146,9.543
				c1.81-3.209,3.84-6.291,6.074-9.222c-3.652-0.467-7.273-1.186-10.826-2.152C224.053,327.167,224.255,327.777,224.46,328.386
				C224.666,328.927,224.268,327.84,224.46,328.386z M226.769,309.723c0.919-0.7,1.854-1.376,2.808-2.028
				c-3.336-1.578-6.566-3.379-9.664-5.388c0.027,4.112,0.37,8.218,1.025,12.277C222.805,312.873,224.757,311.261,226.769,309.723
				C227.274,309.335,226.261,310.111,226.769,309.723z"/>
		</defs>
		<clipPath id="SVGID_2_">
			<use xlink:href="#SVGID_1_"  overflow="visible"/>
		</clipPath>
		<g clip-path="url(#SVGID_2_)">
			<rect x="79.441" y="244.555" opacity="0.16" fill="#3E3AC8" enable-background="new    " width="157.392" height="2.994"/>
			<rect x="79.441" y="247.562" opacity="0.1543" fill="#3E3AC8" enable-background="new    " width="157.392" height="2.695"/>
			<rect x="79.441" y="250.268" opacity="0.1486" fill="#3E3AC8" enable-background="new    " width="157.392" height="2.698"/>
			<rect x="79.441" y="252.97" opacity="0.1429" fill="#3E3AC8" enable-background="new    " width="157.392" height="2.705"/>
			<rect x="79.441" y="255.654" opacity="0.1371" fill="#3E3AC8" enable-background="new    " width="157.392" height="2.73"/>
			<rect x="79.441" y="258.421" opacity="0.1314" fill="#3E3AC8" enable-background="new    " width="157.392" height="2.672"/>
			<rect x="79.441" y="261.127" opacity="0.1257" fill="#3E3AC8" enable-background="new    " width="157.392" height="2.674"/>
			<rect x="79.441" y="263.821" opacity="0.12" fill="#3E3AC8" enable-background="new    " width="157.392" height="2.689"/>
			<rect x="79.441" y="266.528" opacity="0.1143" fill="#3E3AC8" enable-background="new    " width="157.392" height="2.691"/>
			<rect x="79.441" y="269.227" opacity="0.1086" fill="#3E3AC8" enable-background="new    " width="157.392" height="2.701"/>
			<rect x="79.441" y="271.949" opacity="0.1029" fill="#3E3AC8" enable-background="new    " width="157.392" height="2.687"/>
			<rect x="79.441" y="274.618" opacity="0.0971" fill="#3E3AC8" enable-background="new    " width="157.392" height="2.754"/>
			<rect x="79.441" y="277.372" opacity="0.0914" fill="#3E3AC8" enable-background="new    " width="157.392" height="2.682"/>
			<rect x="79.441" y="280.06" opacity="0.0857" fill="#3E3AC8" enable-background="new    " width="157.392" height="2.703"/>
			<rect x="79.441" y="282.766" opacity="0.08" fill="#3E3AC8" enable-background="new    " width="157.392" height="2.705"/>
			<rect x="79.441" y="285.466" opacity="0.0743" fill="#3E3AC8" enable-background="new    " width="157.392" height="2.714"/>
			<rect x="79.441" y="288.209" opacity="0.0686" fill="#3E3AC8" enable-background="new    " width="157.392" height="2.68"/>
			<rect x="79.441" y="290.882" opacity="0.0629" fill="#3E3AC8" enable-background="new    " width="157.392" height="2.716"/>
			<rect x="79.441" y="293.615" opacity="0.0571" fill="#3E3AC8" enable-background="new    " width="157.392" height="2.692"/>
			<rect x="79.441" y="296.304" opacity="0.0514" fill="#3E3AC8" enable-background="new    " width="157.392" height="2.711"/>
			<rect x="79.441" y="299.029" opacity="0.0457" fill="#3E3AC8" enable-background="new    " width="157.392" height="2.695"/>
			<rect x="79.441" y="301.735" opacity="0.04" fill="#3E3AC8" enable-background="new    " width="157.392" height="2.698"/>
			<rect x="79.441" y="304.427" opacity="0.0441" fill="#3E3AC8" enable-background="new    " width="157.392" height="2.815"/>
			<rect x="79.441" y="307.238" opacity="0.0482" fill="#3E3AC8" enable-background="new    " width="157.392" height="2.813"/>
			<rect x="79.441" y="310.052" opacity="0.0523" fill="#3E3AC8" enable-background="new    " width="157.392" height="2.807"/>
			<rect x="79.441" y="312.858" opacity="0.0564" fill="#3E3AC8" enable-background="new    " width="157.392" height="2.81"/>
			<rect x="79.441" y="315.681" opacity="0.0605" fill="#3E3AC8" enable-background="new    " width="157.392" height="2.796"/>
			<rect x="79.441" y="318.469" opacity="0.0646" fill="#3E3AC8" enable-background="new    " width="157.392" height="2.817"/>
			<rect x="79.441" y="321.26" opacity="0.0687" fill="#3E3AC8" enable-background="new    " width="157.392" height="2.835"/>
			<rect x="79.441" y="324.089" opacity="0.0728" fill="#3E3AC8" enable-background="new    " width="157.392" height="2.814"/>
			<rect x="79.441" y="326.901" opacity="0.0769" fill="#3E3AC8" enable-background="new    " width="157.392" height="2.811"/>
			<rect x="79.441" y="329.708" opacity="0.081" fill="#3E3AC8" enable-background="new    " width="157.392" height="2.812"/>
			<rect x="79.441" y="332.526" opacity="0.0851" fill="#3E3AC8" enable-background="new    " width="157.392" height="2.803"/>
			<rect x="79.441" y="335.33" opacity="0.0892" fill="#3E3AC8" enable-background="new    " width="157.392" height="2.808"/>
			<rect x="79.441" y="338.104" opacity="0.0933" fill="#3E3AC8" enable-background="new    " width="157.392" height="2.843"/>
			<rect x="79.441" y="340.938" opacity="0.0974" fill="#3E3AC8" enable-background="new    " width="157.392" height="2.818"/>
			<rect x="79.441" y="343.77" opacity="0.1015" fill="#3E3AC8" enable-background="new    " width="157.392" height="2.795"/>
			<rect x="79.441" y="346.585" opacity="0.1056" fill="#3E3AC8" enable-background="new    " width="157.392" height="2.788"/>
			<rect x="79.441" y="349.388" opacity="0.1097" fill="#3E3AC8" enable-background="new    " width="157.392" height="2.794"/>
			<rect x="79.441" y="352.191" opacity="0.1138" fill="#3E3AC8" enable-background="new    " width="157.392" height="2.8"/>
			<rect x="79.441" y="354.993" opacity="0.1179" fill="#3E3AC8" enable-background="new    " width="157.392" height="2.807"/>
			<rect x="79.441" y="357.763" opacity="0.1221" fill="#3E3AC8" enable-background="new    " width="157.392" height="2.846"/>
			<rect x="79.441" y="360.617" opacity="0.1262" fill="#3E3AC8" enable-background="new    " width="157.392" height="2.801"/>
			<rect x="79.441" y="363.409" opacity="0.1303" fill="#3E3AC8" enable-background="new    " width="157.392" height="2.818"/>
			<rect x="79.441" y="366.233" opacity="0.1344" fill="#3E3AC8" enable-background="new    " width="157.392" height="2.802"/>
			<rect x="79.441" y="369.052" opacity="0.1385" fill="#3E3AC8" enable-background="new    " width="157.392" height="2.791"/>
			<rect x="79.441" y="371.841" opacity="0.1426" fill="#3E3AC8" enable-background="new    " width="157.392" height="2.811"/>
			<rect x="79.441" y="374.649" opacity="0.1467" fill="#3E3AC8" enable-background="new    " width="157.392" height="2.812"/>
			<rect x="79.441" y="377.472" opacity="0.1508" fill="#3E3AC8" enable-background="new    " width="157.392" height="2.798"/>
			<rect x="79.441" y="380.274" opacity="0.1549" fill="#3E3AC8" enable-background="new    " width="157.392" height="2.805"/>
			<rect x="79.441" y="383.087" opacity="0.159" fill="#3E3AC8" enable-background="new    " width="157.392" height="2.8"/>
			<rect x="79.441" y="385.892" opacity="0.1631" fill="#3E3AC8" enable-background="new    " width="157.392" height="2.804"/>
			<rect x="79.441" y="388.709" opacity="0.1672" fill="#3E3AC8" enable-background="new    " width="157.392" height="2.796"/>
			<rect x="79.441" y="391.482" opacity="0.1713" fill="#3E3AC8" enable-background="new    " width="157.392" height="2.832"/>
			<rect x="79.441" y="394.322" opacity="0.1754" fill="#3E3AC8" enable-background="new    " width="157.392" height="2.801"/>
			<rect x="79.441" y="397.132" opacity="0.1795" fill="#3E3AC8" enable-background="new    " width="157.392" height="2.8"/>
			<rect x="79.441" y="399.922" opacity="0.1836" fill="#3E3AC8" enable-background="new    " width="157.392" height="2.819"/>
			<rect x="79.441" y="402.733" opacity="0.1877" fill="#3E3AC8" enable-background="new    " width="157.392" height="2.816"/>
			<rect x="79.441" y="405.561" opacity="0.1918" fill="#3E3AC8" enable-background="new    " width="157.392" height="2.797"/>
			<rect x="79.441" y="408.363" opacity="0.1959" fill="#3E3AC8" enable-background="new    " width="157.392" height="2.804"/>
			<rect x="79.441" y="411.161" opacity="0.2" fill="#3E3AC8" enable-background="new    " width="157.392" height="1.365"/>
			<rect x="79.441" y="205.432" opacity="0.16" fill="#3E3AC8" enable-background="new    " width="157.392" height="39.123"/>
		</g>
	</g>
</g>
</svg>
